<svg width="635" height="508" viewBox="0 0 635 508" fill="none" xmlns="http://www.w3.org/2000/svg">
<g filter="url(#filter0_d_8_563)">
<path d="M126.092 415.431C170.257 415.431 214.422 415.431 258.587 415.431C302.607 415.431 346.628 415.431 390.6 415.431C415.479 415.431 440.406 415.431 465.285 415.431C466.201 415.431 466.201 413.984 465.285 413.984C421.12 413.984 376.955 413.984 332.79 413.984C288.77 413.984 244.749 413.984 200.777 413.984C175.898 413.984 150.971 413.984 126.092 413.984C125.176 413.984 125.176 415.431 126.092 415.431Z" fill="#E8E8E8"/>
<path d="M474.205 385.441C473.819 399.327 475.217 413.213 478.399 426.761C478.592 427.677 479.99 427.292 479.798 426.376C476.664 412.972 475.265 399.231 475.699 385.441C475.651 384.525 474.205 384.525 474.205 385.441Z" fill="#E8E8E8"/>
<path d="M531.629 386.55C532.979 399.375 532.159 412.345 529.218 424.881C529.025 425.797 530.375 426.183 530.616 425.267C533.606 412.586 534.474 399.52 533.075 386.55C532.979 385.634 531.533 385.634 531.629 386.55Z" fill="#E8E8E8"/>
<path d="M478.978 428.111C495.661 432.354 513.307 431.776 529.652 426.376C530.52 426.086 530.134 424.688 529.266 424.977C513.114 430.281 495.805 430.908 479.364 426.713C478.448 426.52 478.062 427.919 478.978 428.111Z" fill="#E8E8E8"/>
<path d="M474.88 386.116C493.636 390.118 513.066 390.022 531.774 385.875C532.69 385.682 532.304 384.284 531.388 384.477C512.922 388.575 493.732 388.623 475.266 384.718C474.35 384.525 473.964 385.923 474.88 386.116Z" fill="#E8E8E8"/>
<path d="M486.307 386.646C483.8 381.005 486.066 374.111 487.946 368.566C489.875 362.828 492.623 357.38 495.998 352.366C495.612 352.414 495.227 352.462 494.841 352.51C495.95 353.764 497.155 354.632 498.65 355.355C499.229 355.596 499.855 355.21 499.711 354.535C499.132 351.932 498.12 349.376 499.277 346.773C500.096 344.94 501.254 343.108 502.218 341.373C501.88 341.469 501.543 341.565 501.205 341.614C502.218 342.24 503.23 342.819 504.243 343.446C504.918 343.88 505.496 343.06 505.255 342.433C504.243 340.215 503.568 337.998 504.966 335.78C505.786 334.43 506.847 333.224 507.763 331.971C509.788 329.271 511.909 326.571 514.031 323.919C518.081 318.856 522.275 313.938 526.615 309.117C526.229 309.069 525.843 309.02 525.458 308.972C531.629 317.072 535.534 326.763 536.595 336.889C537.126 341.758 536.981 346.773 536.113 351.594C535.679 354.053 535.052 356.464 534.281 358.826C534.136 359.309 533.943 359.791 533.799 360.225C533.268 361.575 532.4 362.153 531.002 362.443C530.038 362.635 529.508 362.491 528.688 363.118C528.302 363.407 528.206 363.889 528.543 364.275C529.604 365.384 530.038 365.577 529.652 367.071C529.411 368.035 528.833 369.048 528.399 370.012C527.531 371.941 526.566 373.821 525.554 375.653C523.481 379.414 521.118 382.982 518.466 386.357C517.888 387.08 518.9 388.093 519.479 387.37C524.59 380.812 528.64 373.628 531.677 365.914C531.774 365.673 531.677 365.384 531.484 365.191C530.858 364.564 530.231 363.889 529.556 363.262C529.508 363.648 529.459 364.034 529.411 364.419C530.52 363.648 531.774 364.178 532.931 363.696C533.847 363.359 534.329 362.684 534.715 361.816C535.776 359.55 536.451 356.946 537.029 354.535C538.235 349.232 538.62 343.783 538.235 338.383C537.415 327.487 533.413 316.928 526.759 308.249C526.518 307.911 525.988 307.718 525.602 308.104C520.25 314.035 515.091 320.158 510.173 326.426C507.955 329.222 505.593 332.019 503.664 335.056C501.929 337.805 502.748 340.408 503.954 343.205C504.291 342.867 504.629 342.53 504.966 342.192C503.954 341.565 502.941 340.987 501.929 340.36C501.591 340.167 501.109 340.264 500.916 340.601C499.711 342.819 497.83 345.278 497.155 347.737C496.577 349.907 497.782 352.751 498.264 354.873C498.602 354.583 498.988 354.342 499.325 354.053C497.927 353.426 496.818 352.607 495.805 351.45C495.468 351.064 494.889 351.208 494.648 351.594C490.887 357.187 487.946 363.31 485.921 369.771C484.185 375.364 482.498 381.729 484.957 387.321C485.439 388.189 486.693 387.466 486.307 386.646Z" fill="#E8E8E8"/>
<path d="M525.554 320.062C523.625 341.903 508.679 359.405 502.459 379.945C502.17 380.861 503.568 381.198 503.857 380.33C510.077 359.646 525.072 342.096 527 320.062C527.097 319.097 525.602 319.145 525.554 320.062Z" fill="#E8E8E8"/>
<path d="M507.329 331.681C508.871 339.637 510.655 347.496 512.68 355.307C512.922 356.223 514.32 355.837 514.079 354.921C512.054 347.11 510.27 339.203 508.727 331.296C508.582 330.38 507.184 330.765 507.329 331.681Z" fill="#E8E8E8"/>
<path d="M523.625 336.792C527.82 333.755 531.436 330.138 534.57 325.944C535.149 325.221 533.895 324.497 533.317 325.221C530.375 329.174 526.904 332.646 522.902 335.539C522.179 336.117 522.902 337.371 523.625 336.792Z" fill="#E8E8E8"/>
<path d="M519.141 316.156C520.443 320.303 521.215 325.365 524.397 328.499C525.072 329.174 526.084 328.113 525.409 327.487C522.468 324.546 521.697 319.579 520.491 315.77C520.25 314.903 518.852 315.288 519.141 316.156Z" fill="#E8E8E8"/>
<path d="M483.414 386.261C480.473 383.946 478.689 380.716 477.194 377.341C475.507 373.387 474.06 369.337 472.758 365.239C470.299 357.38 468.515 349.28 467.455 341.131C465.285 324.063 467.021 306.802 464.948 289.686C464.514 289.831 464.031 289.927 463.597 290.072C468.998 302.222 481.63 309.502 492.141 316.735C492.044 316.397 491.948 316.06 491.9 315.722C490.453 317.795 489.007 319.869 487.56 321.942C487.223 322.424 487.657 323.051 488.187 323.051C490.068 323.051 491.707 322.81 493.491 322.183C493.201 322.087 492.96 321.942 492.671 321.845C494.455 324.594 496.239 327.342 498.023 330.09C498.071 329.801 498.119 329.512 498.119 329.222C497.252 330.042 496.528 330.958 495.805 331.971C495.564 332.308 495.805 332.983 496.239 333.031C500.193 333.61 501.591 337.371 502.603 340.746C502.893 341.614 504.291 341.276 504.002 340.36C502.796 336.551 501.061 332.26 496.625 331.633C496.769 331.971 496.914 332.356 497.059 332.694C497.685 331.73 498.312 331.055 499.132 330.283C499.373 330.09 499.421 329.656 499.228 329.415C497.444 326.667 495.66 323.919 493.877 321.17C493.732 320.929 493.394 320.737 493.057 320.833C491.418 321.363 489.826 321.653 488.139 321.604C488.332 321.99 488.573 322.328 488.766 322.713C490.212 320.64 491.659 318.567 493.105 316.494C493.346 316.156 493.153 315.722 492.864 315.481C482.546 308.393 470.155 301.306 464.851 289.349C464.562 288.722 463.405 289.011 463.501 289.734C465.623 307.477 463.742 325.413 466.249 343.108C467.455 351.642 469.431 360.032 472.18 368.18C474.398 374.786 476.712 382.837 482.353 387.321C483.125 387.852 484.137 386.839 483.414 386.261Z" fill="#E8E8E8"/>
<path d="M463.887 291.133C467.792 301.933 471.071 313.311 476.326 323.581C478.93 328.644 481.775 333.61 484.234 338.769C486.885 344.362 489.248 350.051 491.659 355.692C491.996 356.56 493.25 355.789 492.912 354.969C490.646 349.569 488.332 344.169 485.873 338.865C483.462 333.658 480.666 328.692 477.966 323.629C472.566 313.311 469.239 301.74 465.237 290.795C464.948 289.879 463.549 290.265 463.887 291.133Z" fill="#E8E8E8"/>
<path d="M465.719 327.776C470.926 328.403 476.616 328.692 480.569 332.597C481.244 333.272 482.257 332.212 481.582 331.585C477.339 327.438 471.312 327.053 465.719 326.378C464.803 326.233 464.803 327.68 465.719 327.776Z" fill="#E8E8E8"/>
<path d="M479.653 308.249C478.785 311.383 478.207 314.613 477.966 317.892C477.773 320.688 477.435 323.967 478.399 326.667C478.689 327.535 480.087 327.149 479.798 326.281C478.882 323.726 479.219 320.544 479.412 317.844C479.653 314.71 480.232 311.624 481.051 308.586C481.292 307.718 479.894 307.333 479.653 308.249Z" fill="#E8E8E8"/>
<path d="M468.998 354.053C472.758 354.15 476.375 354.198 480.039 355.21C483.655 356.223 487.223 357.284 490.839 358.344C491.755 358.585 492.141 357.187 491.225 356.946C487.368 355.837 483.559 354.632 479.653 353.619C476.133 352.703 472.614 352.751 468.998 352.655C468.082 352.558 468.082 354.005 468.998 354.053Z" fill="#E8E8E8"/>
<path d="M521.745 384.911C524.975 384.477 528.158 384.477 531.388 384.911C531.243 384.573 531.099 384.188 530.954 383.85C530.665 384.284 527.772 384.332 527.193 384.38C525.891 384.573 524.541 384.766 523.24 385.055C523.047 385.104 521.745 385.248 521.697 385.393C521.793 385.152 523.722 385.2 524.011 385.2C525.409 385.2 526.808 385.345 528.206 385.441C528.206 384.959 528.206 384.477 528.206 383.995C527 383.946 525.94 384.091 524.734 384.429C523.963 384.621 524.108 385.827 524.927 385.827C526.808 385.827 528.495 385.441 530.327 384.959C531.243 384.718 530.858 383.32 529.942 383.561C528.302 383.995 526.663 384.38 524.927 384.38C524.975 384.863 525.072 385.345 525.12 385.779C526.133 385.489 527.145 385.393 528.206 385.393C529.122 385.393 529.122 383.995 528.206 383.946C526.084 383.85 522.999 383.079 521.07 384.284C520.299 384.766 519.19 386.02 520.202 386.791C520.636 387.129 521.118 386.936 521.649 386.888C523.095 386.598 524.493 386.261 525.94 386.02C527.627 385.73 531.002 386.164 532.159 384.573C532.4 384.236 532.159 383.561 531.725 383.513C528.35 383.03 525.072 383.03 521.697 383.464C520.829 383.561 520.829 385.007 521.745 384.911Z" fill="#E8E8E8"/>
<path d="M475.507 385.827C476.182 385.634 476.857 385.489 477.532 385.441C477.869 385.441 478.159 385.393 478.496 385.441C478.641 385.441 479.316 385.393 479.364 385.441C479.316 385.2 479.219 384.959 479.171 384.718C479.171 384.766 479.123 384.814 479.123 384.814C479.412 384.67 479.701 384.477 479.991 384.332C479.943 384.332 479.894 384.332 479.894 384.332C480.039 384.477 480.232 384.67 480.377 384.814C480.377 384.766 480.377 384.718 480.328 384.718C480.087 383.802 478.737 384.188 478.93 385.104C478.93 385.152 478.93 385.2 478.978 385.2C479.026 385.441 479.268 385.634 479.46 385.682C479.509 385.682 479.557 385.682 479.557 385.682C479.943 385.779 480.28 385.586 480.425 385.2C480.425 385.152 480.473 385.104 480.473 385.104C480.569 384.863 480.473 384.573 480.28 384.38C479.75 383.85 478.593 383.946 477.918 383.946C476.953 383.946 475.941 384.139 475.025 384.38C474.253 384.67 474.639 386.068 475.507 385.827Z" fill="#E8E8E8"/>
<path d="M476.616 395.518C494.214 398.556 512.488 400.002 529.845 394.795C530.713 394.506 530.375 393.156 529.459 393.397C512.391 398.507 494.359 397.109 477.001 394.12C476.085 393.975 475.7 395.373 476.616 395.518Z" fill="#E8E8E8"/>
<path d="M537.222 415.334C568.128 415.334 599.082 415.334 629.988 415.334C630.904 415.334 630.904 413.888 629.988 413.888C599.082 413.888 568.128 413.888 537.222 413.888C536.258 413.888 536.258 415.334 537.222 415.334Z" fill="#E8E8E8"/>
<path d="M513.838 446.337C542.96 446.337 572.13 446.337 601.251 446.337C602.168 446.337 602.168 444.89 601.251 444.89C572.13 444.89 542.96 444.89 513.838 444.89C512.922 444.89 512.922 446.337 513.838 446.337Z" fill="#E8E8E8"/>
<path d="M527.097 446.192C523.625 449.085 520.154 451.93 516.73 454.823C516.007 455.401 517.02 456.414 517.743 455.835C521.214 452.942 524.686 450.097 528.109 447.205C528.832 446.626 527.772 445.565 527.097 446.192Z" fill="#E8E8E8"/>
<path d="M517.165 456.365C518.081 456.365 518.081 454.919 517.165 454.919C516.249 454.919 516.249 456.365 517.165 456.365Z" fill="#E8E8E8"/>
<path d="M531.87 454.919C502.507 454.919 473.144 454.919 443.781 454.919C442.865 454.919 442.865 456.365 443.781 456.365C473.144 456.365 502.507 456.365 531.87 456.365C532.786 456.365 532.786 454.919 531.87 454.919Z" fill="#E8E8E8"/>
<path d="M443.637 469.866C448.844 465.526 454.196 461.38 459.692 457.378C460.415 456.848 459.74 455.594 458.969 456.124C453.376 460.174 447.928 464.417 442.624 468.805C441.901 469.432 442.913 470.444 443.637 469.866Z" fill="#E8E8E8"/>
<path d="M4.68706 443.54C38.7269 443.54 72.7667 443.54 106.806 443.54C116.449 443.54 126.092 443.54 135.735 443.54C136.652 443.54 136.652 442.094 135.735 442.094C101.696 442.094 67.6559 442.094 33.6161 442.094C23.9731 442.094 14.3301 442.094 4.68706 442.094C3.77098 442.094 3.77098 443.54 4.68706 443.54Z" fill="#E8E8E8"/>
<path d="M22.4786 456.124C27.0591 452.219 31.6877 448.313 36.2681 444.408C36.9913 443.781 35.9306 442.769 35.2556 443.396C30.6752 447.301 26.0465 451.206 21.4661 455.112C20.7429 455.69 21.8036 456.751 22.4786 456.124Z" fill="#E8E8E8"/>
<path d="M5.89263 457.523C37.5217 457.523 69.1507 457.523 100.78 457.523C101.696 457.523 101.696 456.076 100.78 456.076C69.1507 456.076 37.5217 456.076 5.89263 456.076C4.97655 456.076 4.97655 457.523 5.89263 457.523Z" fill="#E8E8E8"/>
<path d="M89.7383 457.233C86.1222 461.283 82.4097 465.237 78.6489 469.191C78.0221 469.866 79.0346 470.878 79.6614 470.203C83.4222 466.249 87.0865 462.296 90.7509 458.246C91.4259 457.571 90.3651 456.558 89.7383 457.233Z" fill="#E8E8E8"/>
<path d="M65.0523 471.505C92.8724 471.505 120.644 471.505 148.464 471.505C149.38 471.505 149.38 470.058 148.464 470.058C120.644 470.058 92.8724 470.058 65.0523 470.058C64.1362 470.058 64.1362 471.505 65.0523 471.505Z" fill="#E8E8E8"/>
<path d="M45.3326 419.288C57.097 419.288 68.8615 419.288 80.6742 419.288C81.5903 419.288 81.5903 417.842 80.6742 417.842C68.9097 417.842 57.1453 417.842 45.3326 417.842C44.4165 417.842 44.4165 419.288 45.3326 419.288Z" fill="#E8E8E8"/>
<path d="M89.5938 424.013C93.21 424.013 96.8743 424.013 100.49 424.013C101.407 424.013 101.407 422.567 100.49 422.567C96.8743 422.567 93.21 422.567 89.5938 422.567C88.6295 422.567 88.6295 424.013 89.5938 424.013Z" fill="#E8E8E8"/>
<path d="M63.4131 166.207C63.4131 174.066 63.4131 181.974 63.4131 189.833C63.4131 190.749 64.8595 190.749 64.8595 189.833C64.8595 181.974 64.8595 174.066 64.8595 166.207C64.8595 165.291 63.4131 165.291 63.4131 166.207Z" fill="#E8E8E8"/>
<path d="M39.1607 190.99C58.5431 190.99 77.9256 190.99 97.308 190.99C98.2241 190.99 98.2241 189.543 97.308 189.543C77.9256 189.543 58.5431 189.543 39.1607 189.543C38.2446 189.543 38.2446 190.99 39.1607 190.99Z" fill="#E8E8E8"/>
<path d="M79.7578 191.665C79.7578 197.74 79.7578 203.767 79.7578 209.842C79.7578 210.758 81.2043 210.758 81.2043 209.842C81.2043 203.767 81.2043 197.74 81.2043 191.665C81.2043 190.701 79.7578 190.701 79.7578 191.665Z" fill="#E8E8E8"/>
<path d="M63.7022 212.349C79.131 212.349 94.6081 212.349 110.037 212.349C110.953 212.349 110.953 210.903 110.037 210.903C94.6081 210.903 79.131 210.903 63.7022 210.903C62.7379 210.903 62.7379 212.349 63.7022 212.349Z" fill="#E8E8E8"/>
<path d="M452.797 149.284C452.797 151.213 452.797 153.093 452.797 155.022C452.797 155.938 454.244 155.938 454.244 155.022C454.244 153.093 454.244 151.213 454.244 149.284C454.244 148.368 452.797 148.368 452.797 149.284Z" fill="#E8E8E8"/>
<path d="M453.954 150.441C487.126 150.441 520.298 150.441 553.47 150.441C554.386 150.441 554.386 148.995 553.47 148.995C520.298 148.995 487.126 148.995 453.954 148.995C453.038 148.995 453.038 150.441 453.954 150.441Z" fill="#E8E8E8"/>
<path d="M454.822 155.745C487.705 155.745 520.588 155.745 553.422 155.745C554.338 155.745 554.338 154.298 553.422 154.298C520.539 154.298 487.657 154.298 454.822 154.298C453.906 154.298 453.906 155.745 454.822 155.745Z" fill="#E8E8E8"/>
<path d="M553.229 149.284C553.036 151.261 553.133 153.238 553.47 155.214C553.615 156.13 555.013 155.745 554.868 154.829C554.531 152.997 554.483 151.116 554.676 149.284C554.772 148.368 553.326 148.368 553.229 149.284Z" fill="#E8E8E8"/>
<path d="M460.753 149.332C460.753 135.88 460.753 122.428 460.753 108.976C460.753 108.06 459.306 108.06 459.306 108.976C459.306 122.428 459.306 135.88 459.306 149.332C459.306 150.296 460.753 150.296 460.753 149.332Z" fill="#E8E8E8"/>
<path d="M460.753 109.217C464.851 107.578 469.19 107.819 472.999 110.085C473.819 110.567 474.542 109.314 473.723 108.832C469.624 106.421 464.755 106.035 460.367 107.819C459.499 108.157 459.885 109.555 460.753 109.217Z" fill="#E8E8E8"/>
<path d="M472.758 109.748C472.758 122.669 472.758 135.639 472.758 148.561C472.758 149.477 474.205 149.477 474.205 148.561C474.205 135.639 474.205 122.669 474.205 109.748C474.205 108.832 472.758 108.832 472.758 109.748Z" fill="#E8E8E8"/>
<path d="M474.398 120.548C477.339 119.342 480.425 119.535 483.173 121.223C483.993 121.705 484.716 120.451 483.896 119.969C480.859 118.137 477.291 117.8 474.012 119.15C473.144 119.487 473.53 120.885 474.398 120.548Z" fill="#E8E8E8"/>
<path d="M482.884 121.175C482.884 130.239 482.884 139.255 482.884 148.32C482.884 149.236 484.33 149.236 484.33 148.32C484.33 139.255 484.33 130.239 484.33 121.175C484.33 120.259 482.884 120.259 482.884 121.175Z" fill="#E8E8E8"/>
<path d="M460.946 120.307C465.044 119.391 469.094 119.68 473.048 121.078C473.916 121.367 474.301 119.969 473.433 119.68C469.239 118.185 464.899 117.992 460.56 118.908C459.692 119.101 460.078 120.5 460.946 120.307Z" fill="#E8E8E8"/>
<path d="M473.385 137.037C476.471 136.218 479.557 136.121 482.691 136.796C483.607 136.989 483.993 135.591 483.077 135.398C479.701 134.675 476.375 134.723 473 135.639C472.132 135.88 472.469 137.278 473.385 137.037Z" fill="#E8E8E8"/>
<path d="M501.109 148.85C501.109 146.15 501.109 143.45 501.109 140.75C501.109 139.834 499.662 139.834 499.662 140.75C499.662 143.45 499.662 146.15 499.662 148.85C499.662 149.766 501.109 149.766 501.109 148.85Z" fill="#E8E8E8"/>
<path d="M500.386 141.184C516.055 141.184 531.677 141.184 547.347 141.184C548.263 141.184 548.263 139.737 547.347 139.737C531.677 139.737 516.055 139.737 500.386 139.737C499.421 139.737 499.421 141.184 500.386 141.184Z" fill="#E8E8E8"/>
<path d="M547.829 141.955C548.745 141.955 548.745 140.509 547.829 140.509C546.865 140.509 546.865 141.955 547.829 141.955Z" fill="#E8E8E8"/>
<path d="M547.106 141.232C547.106 143.691 547.106 146.15 547.106 148.609C547.106 149.525 548.552 149.525 548.552 148.609C548.552 146.15 548.552 143.691 548.552 141.232C548.552 140.316 547.106 140.316 547.106 141.232Z" fill="#E8E8E8"/>
<path d="M510.222 140.22C510.222 137.664 510.222 135.157 510.222 132.602C510.222 131.685 508.775 131.685 508.775 132.602C508.775 135.157 508.775 137.664 508.775 140.22C508.775 141.136 510.222 141.136 510.222 140.22Z" fill="#E8E8E8"/>
<path d="M509.498 133.084C524.879 133.084 540.259 133.084 555.688 133.084C556.604 133.084 556.604 131.637 555.688 131.637C540.308 131.637 524.927 131.637 509.498 131.637C508.582 131.637 508.582 133.084 509.498 133.084Z" fill="#E8E8E8"/>
<path d="M555.206 132.36C555.206 134.482 555.206 136.603 555.206 138.725C555.206 139.641 556.653 139.641 556.653 138.725C556.653 136.603 556.653 134.482 556.653 132.36C556.653 131.396 555.206 131.396 555.206 132.36Z" fill="#E8E8E8"/>
<path d="M546.817 141.425C549.613 141.425 552.41 141.425 555.206 141.425C556.122 141.425 556.122 139.978 555.206 139.978C552.41 139.978 549.613 139.978 546.817 139.978C545.852 139.978 545.852 141.425 546.817 141.425Z" fill="#E8E8E8"/>
<path d="M555.11 138.773C555.013 139.303 555.013 139.786 555.158 140.268C555.254 140.653 555.688 140.895 556.026 140.75C556.412 140.653 556.653 140.22 556.508 139.882C556.46 139.641 556.412 139.352 556.46 139.159C556.508 138.773 556.363 138.339 555.978 138.291C555.64 138.195 555.158 138.387 555.11 138.773Z" fill="#E8E8E8"/>
<path d="M520.491 132.698C521.118 135.157 521.263 137.664 520.925 140.22C520.829 141.136 522.275 141.136 522.372 140.22C522.709 137.568 522.516 134.916 521.889 132.312C521.648 131.444 520.25 131.83 520.491 132.698Z" fill="#E8E8E8"/>
<path d="M531.388 141.087C531.725 143.498 531.532 145.861 530.954 148.175C530.713 149.091 532.111 149.477 532.352 148.561C533.027 145.957 533.172 143.353 532.786 140.702C532.69 139.786 531.291 140.171 531.388 141.087Z" fill="#E8E8E8"/>
<path d="M521.938 199.765C521.938 203.574 521.938 207.335 521.938 211.144C521.938 212.06 523.384 212.06 523.384 211.144C523.384 207.335 523.384 203.574 523.384 199.765C523.384 198.801 521.938 198.801 521.938 199.765Z" fill="#E8E8E8"/>
<path d="M510.752 211.337C520.395 211.337 530.038 211.337 539.681 211.337C540.597 211.337 540.597 209.89 539.681 209.89C530.038 209.89 520.395 209.89 510.752 209.89C509.836 209.89 509.836 211.337 510.752 211.337Z" fill="#E8E8E8"/>
<path d="M494.311 49.1413C494.311 57.8201 494.311 66.547 494.311 75.2257C494.311 76.1418 495.757 76.1418 495.757 75.2257C495.757 66.547 495.757 57.8201 495.757 49.1413C495.757 48.2253 494.311 48.2253 494.311 49.1413Z" fill="#E8E8E8"/>
<path d="M496.143 49.0931C507.136 49.0931 518.08 49.0931 529.074 49.0931C529.99 49.0931 529.99 47.6467 529.074 47.6467C518.08 47.6467 507.136 47.6467 496.143 47.6467C495.227 47.6467 495.227 49.0931 496.143 49.0931Z" fill="#E8E8E8"/>
<path d="M529.122 48.9003C529.122 57.2897 529.122 65.6791 529.122 74.0203C529.122 74.9364 530.568 74.9364 530.568 74.0203C530.568 65.6309 530.568 57.2415 530.568 48.9003C530.568 47.9842 529.122 47.9842 529.122 48.9003Z" fill="#E8E8E8"/>
<path d="M494.841 76.0454C506.509 76.0454 518.177 76.0454 529.845 76.0454C530.761 76.0454 530.761 74.5989 529.845 74.5989C518.177 74.5989 506.509 74.5989 494.841 74.5989C493.925 74.5989 493.925 76.0454 494.841 76.0454Z" fill="#E8E8E8"/>
<path d="M497.541 52.1307C497.541 58.7362 497.541 65.2934 497.541 71.8989C497.541 72.8149 498.987 72.8149 498.987 71.8989C498.987 65.2934 498.987 58.7362 498.987 52.1307C498.987 51.2146 497.541 51.2146 497.541 52.1307Z" fill="#E8E8E8"/>
<path d="M498.602 52.7093C507.618 52.7093 516.682 52.7093 525.698 52.7093C526.615 52.7093 526.615 51.2628 525.698 51.2628C516.682 51.2628 507.618 51.2628 498.602 51.2628C497.686 51.2628 497.686 52.7093 498.602 52.7093Z" fill="#E8E8E8"/>
<path d="M525.168 52.1307C525.168 58.254 525.168 64.3291 525.168 70.4524C525.168 71.3685 526.615 71.3685 526.615 70.4524C526.615 64.3291 526.615 58.254 526.615 52.1307C526.615 51.2146 525.168 51.2146 525.168 52.1307Z" fill="#E8E8E8"/>
<path d="M498.602 72.6221C507.57 72.6221 516.538 72.6221 525.554 72.6221C526.47 72.6221 526.47 71.1756 525.554 71.1756C516.586 71.1756 507.618 71.1756 498.602 71.1756C497.686 71.1756 497.686 72.6221 498.602 72.6221Z" fill="#E8E8E8"/>
<path d="M515.67 63.9434C511.861 61.0505 517.55 55.0236 520.202 58.6397C522.661 61.9184 518.659 65.872 515.236 64.0398C514.416 63.6059 513.693 64.8595 514.513 65.2934C516.731 66.4988 519.672 66.1613 521.263 64.088C522.902 62.0148 522.709 58.7362 520.636 57.0004C518.466 55.2165 515.381 56.4218 513.886 58.4469C512.295 60.6648 512.777 63.5577 514.947 65.197C515.718 65.7273 516.393 64.4737 515.67 63.9434Z" fill="#E8E8E8"/>
<path d="M511.089 71.0792C510.897 67.2702 515.573 65.8238 518.515 65.8238C522.131 65.8238 523.288 69.0542 524.783 71.8024C525.216 72.6221 526.47 71.8988 526.036 71.0792C525.024 69.247 524.059 66.8363 522.372 65.4863C520.829 64.2809 518.9 64.3291 517.068 64.522C513.693 64.9077 509.402 66.9809 509.643 71.0792C509.691 71.9953 511.138 71.9953 511.089 71.0792Z" fill="#E8E8E8"/>
<path d="M499.229 67.6077C500.289 65.6309 504.195 66.4023 505.641 67.1738C507.136 67.9934 508.004 69.3435 508.389 70.9828C508.582 71.8989 509.981 71.5131 509.788 70.597C509.209 68.0899 507.473 66.1131 504.966 65.2934C502.845 64.6184 499.229 64.5702 498.023 66.8363C497.541 67.7042 498.795 68.4274 499.229 67.6077Z" fill="#E8E8E8"/>
<path d="M502.025 64.0398C500.434 63.9916 500.82 61.6291 501.495 60.8094C502.362 59.7487 504.098 59.604 505.111 60.6165C505.93 61.388 506.171 62.8344 505.496 63.7505C505.014 64.4255 504.291 64.5702 503.52 64.5702C503.23 64.5702 502.025 64.6184 501.832 64.3773C501.302 63.6059 500.048 64.3291 500.579 65.1005C501.157 65.9684 502.362 66.0166 503.327 66.0166C504.484 66.0648 505.593 65.7756 506.413 64.9077C507.955 63.2202 507.425 60.3755 505.593 59.1219C503.616 57.8201 500.868 58.5433 499.855 60.6648C498.987 62.5451 499.614 65.3898 502.025 65.438C502.989 65.5345 502.989 64.088 502.025 64.0398Z" fill="#E8E8E8"/>
<path d="M206.949 177.297C209.215 179.129 212.012 178.358 214.133 176.574C217.122 174.115 218.617 169.92 219.196 166.207C220.69 156.757 216.881 147.789 215.387 138.628C212.687 121.609 220.112 103.383 233.901 93.1617C240.603 88.1473 251.644 82.7955 249.041 72.5257C248.8 71.6096 247.401 71.9953 247.642 72.9114C250.101 82.699 238.723 87.6652 232.503 92.3903C226.91 96.6814 222.378 102.226 219.147 108.446C215.965 114.473 214.037 121.175 213.506 127.973C212.879 136.218 215.049 143.884 216.833 151.839C217.894 156.661 218.569 161.723 217.653 166.641C217.219 168.907 216.447 171.125 215.242 173.102C213.892 175.224 210.662 178.502 207.962 176.333C207.287 175.706 206.226 176.718 206.949 177.297Z" fill="#E8E8E8"/>
<path d="M248.511 71.9471C243.062 72.1882 238.289 67.9453 238.578 62.3523C238.868 56.5183 245.762 51.1182 251.596 52.6611C256.804 54.0593 260.805 59.7969 259.504 65.1488C258.202 70.5007 252.175 71.6578 247.546 72.4293C246.63 72.5739 247.016 73.9721 247.932 73.8275C253.911 72.8632 260.854 70.7417 261.239 63.5095C261.529 57.6272 256.273 51.2629 250.246 51.0218C243.882 50.7325 237.469 55.9397 237.132 62.4005C236.843 68.7649 242.291 73.6828 248.511 73.4418C249.427 73.3453 249.427 71.8989 248.511 71.9471Z" fill="#E8E8E8"/>
<path d="M241.375 68.1863C243.689 62.3523 256.032 61.388 257.479 68.331C257.671 69.247 259.07 68.8613 258.877 67.9452C257.093 59.4594 242.773 60.713 239.976 67.8006C239.639 68.6685 241.037 69.006 241.375 68.1863Z" fill="#E8E8E8"/>
<path d="M248.607 61.6773C247.594 60.9541 247.209 59.5558 247.884 58.4951C248.655 57.1933 250.294 57.0486 251.548 57.7237C252.512 58.254 252.705 59.4594 252.127 60.3755C251.403 61.4844 249.861 61.6291 248.655 61.3398C247.739 61.1469 247.353 62.5452 248.269 62.738C250.198 63.172 252.512 62.738 253.477 60.8576C254.345 59.1701 253.718 57.1451 251.982 56.3254C250.053 55.4575 247.739 55.8433 246.63 57.7237C245.521 59.5076 246.244 61.7255 247.884 62.8827C248.655 63.5095 249.378 62.2559 248.607 61.6773Z" fill="#E8E8E8"/>
<path d="M269.05 46.8271C274.113 33.4233 288.674 26.5767 302.222 25.6607C311.19 25.0339 320.158 26.4321 328.933 28.1196C337.226 29.7589 345.857 32.3625 354.342 32.0733C361.334 31.8322 368.518 28.9393 371.796 22.4303C372.23 21.6106 370.977 20.8874 370.543 21.707C366.734 29.2286 357.959 31.1572 350.196 30.5304C341.131 29.8072 332.212 27.1071 323.292 25.6124C308.827 23.2017 293.399 22.8642 280.525 31.0125C274.691 34.7251 270.063 39.9323 267.604 46.4413C267.314 47.3092 268.713 47.6949 269.05 46.8271Z" fill="#E8E8E8"/>
<path d="M377.63 21.6106C390.359 21.6106 403.136 21.6106 415.865 21.6106C416.781 21.6106 416.781 20.1642 415.865 20.1642C403.136 20.1642 390.359 20.1642 377.63 20.1642C376.666 20.1642 376.666 21.6106 377.63 21.6106Z" fill="#E8E8E8"/>
<path d="M377.1 20.0677C374.834 17.8499 377.293 14.0891 379.077 12.4016C381.246 10.2801 384.236 9.46044 387.129 10.6176C387.37 10.714 387.852 10.5694 387.948 10.2801C389.684 6.23003 393.782 3.28891 398.266 3.48177C402.943 3.67463 406.897 7.19433 408.054 11.6301C408.15 12.0641 408.729 12.3051 409.115 12.064C411.236 10.7622 413.406 12.3051 414.274 14.2819C415.045 16.1141 414.852 18.1874 414.659 20.1642C414.563 21.0803 416.009 21.0803 416.106 20.1642C416.395 17.2713 416.588 13.848 414.274 11.6301C412.634 10.0872 410.368 9.60508 408.44 10.8105C408.777 10.9551 409.163 11.0997 409.5 11.2444C408.199 6.42289 404.052 2.56569 398.99 2.08354C393.782 1.55318 388.768 4.78358 386.743 9.55687C387.032 9.46044 387.273 9.31579 387.563 9.21936C383.705 7.67648 379.655 9.31579 377.148 12.498C375.268 14.8605 373.628 18.6695 376.184 21.1285C376.762 21.7553 377.775 20.7428 377.1 20.0677Z" fill="#E8E8E8"/>
<path d="M404.534 27.1553C410.465 26.4803 413.936 32.7001 414.852 37.7144C415.817 42.8734 414.9 48.0324 414.37 53.1914C413.55 60.9541 414.081 70.3078 421.458 74.84C422.229 75.3221 423.001 74.0685 422.181 73.5864C412.104 67.4149 416.299 53.6736 416.684 44.2234C416.974 37.0394 414.129 24.6482 404.534 25.7089C403.618 25.8053 403.618 27.2518 404.534 27.1553Z" fill="#E8E8E8"/>
<path d="M429.461 66.6916C425.122 77.6365 420.831 88.5813 416.492 99.4779C416.154 100.346 417.552 100.731 417.89 99.8636C422.229 88.9188 426.52 77.974 430.86 67.0774C431.197 66.2095 429.799 65.872 429.461 66.6916Z" fill="#E8E8E8"/>
<path d="M430.136 67.6077C437.658 67.222 445.131 67.4149 452.605 68.2827C452.364 67.9935 452.123 67.656 451.93 67.3667C448.362 78.7936 445.469 90.3652 443.155 102.081C442.962 102.998 444.36 103.383 444.553 102.467C446.867 90.7509 449.808 79.1793 453.328 67.7524C453.473 67.2702 453.087 66.8845 452.653 66.8363C445.18 65.9684 437.706 65.7756 430.185 66.1613C429.22 66.2095 429.22 67.656 430.136 67.6077Z" fill="#E8E8E8"/>
<path d="M416.829 100.876C421.265 101.069 425.653 101.31 430.088 101.599C434.379 101.84 438.96 101.744 443.01 103.383C443.878 103.721 444.264 102.323 443.396 101.985C439.538 100.394 435.151 100.49 431.053 100.249C426.328 99.96 421.602 99.7189 416.829 99.4778C415.913 99.3814 415.913 100.828 416.829 100.876Z" fill="#E8E8E8"/>
<path d="M430.811 72.4292C435.44 72.5257 440.069 72.8632 444.649 73.49C445.565 73.6346 445.951 72.2364 445.035 72.0917C440.31 71.4167 435.585 71.031 430.811 70.9346C429.847 70.9346 429.847 72.381 430.811 72.4292Z" fill="#E8E8E8"/>
<path d="M429.413 75.7079C432.017 75.6114 434.62 75.6596 437.224 75.9007C438.14 75.9971 438.14 74.5507 437.224 74.4543C434.62 74.2132 432.017 74.1168 429.413 74.2614C428.497 74.3096 428.497 75.7561 429.413 75.7079Z" fill="#E8E8E8"/>
<path d="M426.231 82.2169C431.776 81.8794 437.031 81.3972 442.48 82.7472C443.396 82.9883 443.781 81.5901 442.865 81.349C437.272 79.999 431.92 80.4329 426.231 80.7704C425.267 80.8186 425.267 82.2651 426.231 82.2169Z" fill="#E8E8E8"/>
<path d="M426.472 86.4598C429.654 86.2187 432.837 86.2187 436.019 86.508C436.935 86.6045 436.935 85.158 436.019 85.0616C432.837 84.7723 429.654 84.7723 426.472 85.0134C425.556 85.1098 425.508 86.5562 426.472 86.4598Z" fill="#E8E8E8"/>
<path d="M423.965 92.0528C428.304 91.7635 432.547 91.9081 436.838 92.4867C437.754 92.6313 437.754 91.1849 436.838 91.0402C432.547 90.4617 428.256 90.317 423.965 90.6063C423.049 90.6545 423.049 92.101 423.965 92.0528Z" fill="#E8E8E8"/>
<path d="M184.047 27.3482C185.976 29.9518 188.772 31.0125 191.617 32.3144C194.992 33.8572 198.078 35.9305 200.585 38.6787C206.274 44.802 208.155 53.0468 208.299 61.1951C208.637 76.4793 203.478 92.4867 210.421 106.951C210.806 107.771 212.06 107.048 211.674 106.228C204.394 90.992 210.855 73.9239 209.601 57.9165C209.071 50.9736 207.094 44.1752 202.61 38.7752C200.488 36.2198 197.885 34.0019 194.992 32.3626C191.761 30.5304 187.567 29.7107 185.301 26.625C184.77 25.9018 183.517 26.625 184.047 27.3482Z" fill="#E8E8E8"/>
<path d="M167.557 6.95322C166.304 5.36212 166.4 4.25318 167.847 3.62638C168.473 3.28888 169.1 3.0478 169.823 2.90316C170.74 2.7103 171.752 2.66208 172.716 2.7103C175.609 2.85494 178.55 3.62639 178.406 7.14608C178.261 11.2926 177.49 15.3908 176.477 19.3927C175.416 23.491 174.115 27.4928 172.716 31.4947C172.427 32.3625 172.186 33.375 171.752 34.1947C170.884 35.6894 169.534 35.6412 168.088 35.6412C166.304 35.6412 164.038 35.8822 162.302 35.4001C160.373 34.8697 159.939 32.9411 161.82 31.6875C162.688 31.1089 163.893 31.0125 164.906 31.0125C166.207 31.0125 167.364 31.3018 168.473 30.4339C170.595 28.7946 170.932 24.3588 171.415 21.9963C172.138 18.573 173.343 14.3783 173.102 10.9069C172.909 8.25503 170.306 8.1586 168.425 7.04965C167.606 6.5675 166.882 7.82109 167.702 8.30324C169.197 9.17111 171.366 9.26754 171.656 11.2444C171.993 13.5587 171.029 16.6926 170.595 19.007C170.161 21.2249 169.679 23.4428 169.1 25.6124C168.666 27.2517 168.473 29.2286 166.304 29.6625C165.436 29.8554 164.375 29.5661 163.459 29.7107C161.145 30.0482 158.879 31.6875 159.216 34.2911C159.65 37.5698 163.556 36.9912 165.966 37.0876C168.956 37.184 171.945 37.618 173.295 34.4358C174.982 30.4821 176.188 26.1428 177.345 22.0445C178.55 17.8016 179.466 13.414 179.804 9.02646C180.093 5.6032 180.238 2.85494 176.429 1.93886C173.102 1.1192 168.522 0.733483 165.918 3.43352C164.182 5.21748 164.616 8.73718 167.606 8.4961C168.473 8.30324 168.473 6.85679 167.557 6.95322Z" fill="#E8E8E8"/>
<path d="M161.723 12.1123C161.675 12.064 161.627 12.0158 161.579 11.9676C161.386 11.7747 161.097 11.7265 160.855 11.7747C159.457 12.2569 158.927 14.523 158.541 15.7766C157.866 18.0909 157.721 20.4534 158.059 22.8642C158.155 23.7803 159.602 23.7803 159.505 22.8642C159.313 21.1767 159.264 19.5374 159.554 17.8498C159.698 16.982 161.193 13.6069 160.663 13.1248C161.338 13.7998 162.35 12.7873 161.723 12.1123Z" fill="#E8E8E8"/>
<path d="M156.854 6.80859C152.418 12.4497 149.573 19.2481 151.453 26.4803C151.695 27.3964 153.093 27.0107 152.852 26.0946C151.116 19.4409 153.816 13.0283 157.866 7.8211C158.445 7.09788 157.432 6.08537 156.854 6.80859Z" fill="#E8E8E8"/>
<path d="M150.779 0.29957C143.402 9.99079 139.93 22.2374 141.184 34.3876C141.28 35.3037 142.727 35.3037 142.63 34.3876C141.425 22.4785 144.752 10.5694 152.032 1.02279C152.563 0.29957 151.309 -0.423656 150.779 0.29957Z" fill="#E8E8E8"/>
<path d="M140.509 49.5753C136.796 51.3593 133.325 53.8182 130.577 56.904C127.78 60.0862 126.912 63.5094 126.478 67.6559C125.514 77.1543 121.994 87.5687 112.448 91.5706C111.58 91.9081 111.966 93.3063 112.833 92.9688C120.451 89.7866 124.887 82.5544 126.768 74.7435C127.877 70.0667 127.346 64.522 129.805 60.3273C132.312 56.0361 136.844 52.9021 141.232 50.7807C142.1 50.4432 141.377 49.1896 140.509 49.5753Z" fill="#E8E8E8"/>
<path d="M92.0528 117.173C88.8706 117.269 85.2545 115.919 84.0973 112.641C82.7473 108.783 85.6402 105.023 88.7259 103.046C94.7046 99.1886 102.757 97.6939 109.699 97.5975C113.219 97.5492 117.221 97.5975 120.307 99.4778C124.26 101.889 124.935 106.421 121.85 109.844C117.173 115.051 109.121 115.582 102.66 116.064C101.744 116.112 101.744 117.558 102.66 117.51C109.121 117.028 116.353 116.45 121.56 112.11C126.334 108.157 126.671 101.599 121.078 98.176C115.292 94.6563 106.469 95.8135 100.201 97.1635C94.1742 98.4653 85.9295 100.828 83.2294 107.048C80.4329 113.412 85.7848 118.716 92.1492 118.523C93.0171 118.571 93.0171 117.125 92.0528 117.173Z" fill="#E8E8E8"/>
<path d="M91.8116 117.751C90.6062 119.68 89.449 121.609 88.2436 123.489C87.8579 124.116 88.6294 124.791 89.2562 124.501C92.1973 122.91 95.3795 121.898 98.3688 120.5C100.008 119.776 101.599 118.909 103.142 117.944C103.672 117.607 104.299 117.414 104.444 116.739C104.54 116.401 104.347 115.919 103.962 115.871C103.914 115.871 103.865 115.871 103.817 115.823C103.48 115.775 102.997 115.919 102.949 116.305C102.949 116.353 102.949 116.353 102.949 116.401C102.756 117.317 104.155 117.703 104.347 116.787C104.347 116.739 104.347 116.739 104.347 116.691C104.058 116.835 103.769 117.028 103.48 117.173C103.528 117.173 103.576 117.173 103.624 117.221C103.48 116.932 103.287 116.642 103.142 116.353C102.997 116.835 100.297 117.944 99.7188 118.282C98.2724 119.053 96.7777 119.68 95.2348 120.307C92.9687 121.223 90.7508 122.091 88.6294 123.248C88.9669 123.585 89.3044 123.923 89.6419 124.26C90.8473 122.332 92.0044 120.403 93.2098 118.523C93.5473 117.703 92.2937 116.98 91.8116 117.751Z" fill="#E8E8E8"/>
<path d="M93.4027 109.41C93.3545 109.314 93.3545 109.121 93.4992 109.121C93.8849 109.121 93.451 109.603 93.4027 109.651C93.1617 109.796 92.342 109.989 92.3902 109.507C92.4384 108.928 93.5474 108.301 93.7403 109.169C93.7885 109.41 93.5956 109.699 93.3545 109.748C93.2099 109.796 93.1135 109.796 93.017 109.699C92.9688 109.651 92.8724 109.603 92.9688 109.603C93.8849 109.651 93.8849 108.205 92.9688 108.157C92.0045 108.06 91.2813 109.073 91.5224 109.989C91.7634 110.905 92.8242 111.387 93.692 111.146C94.5599 110.905 95.2349 110.133 95.2349 109.217C95.2349 108.301 94.5117 107.53 93.692 107.337C91.9081 106.903 90.0277 109.507 91.5706 110.808C92.8242 111.869 95.3314 110.905 95.1867 109.121C95.0903 108.157 94.0296 107.385 93.0653 107.723C92.101 108.06 91.7152 109.266 92.1974 110.133C92.5831 110.953 93.8367 110.23 93.4027 109.41Z" fill="#E8E8E8"/>
<path d="M104.058 108.108C104.01 107.819 103.865 107.433 104.155 107.192C104.299 107.048 104.54 107.048 104.733 107.048C105.215 107.144 105.119 107.674 104.781 107.915C104.589 108.06 104.396 108.06 104.251 107.867C104.106 107.674 104.155 107.626 104.299 107.53C104.396 107.482 104.106 107.53 104.347 107.482C104.926 107.385 103.962 108.06 104.106 107.578C103.817 108.494 105.215 108.832 105.505 107.964C105.746 107.096 104.926 106.228 104.058 106.373C103.046 106.565 102.805 107.771 103.431 108.494C104.01 109.169 105.071 109.024 105.505 108.253C105.939 107.482 105.649 106.469 104.781 106.18C103.914 105.89 102.949 106.421 102.756 107.289C102.515 108.253 103.19 109.217 104.155 109.458C105.89 109.844 107.337 107.482 106.083 106.18C105.456 105.553 104.444 105.505 103.672 105.842C102.612 106.373 102.563 107.482 102.756 108.494C102.805 109.41 104.203 109.024 104.058 108.108Z" fill="#E8E8E8"/>
<path d="M114.762 104.878C114.955 104.878 115.148 104.926 115.389 104.926V104.878C115.437 104.83 115.437 104.733 115.485 104.685C115.534 104.589 115.678 104.492 115.775 104.444C116.016 104.348 116.257 104.348 116.401 104.589C116.594 104.974 116.257 105.698 115.775 105.408C115.485 105.215 115.437 104.733 115.871 104.83C115.968 104.83 116.016 104.878 116.064 104.926C116.064 104.926 116.064 105.023 116.064 104.926C116.064 104.83 116.064 104.974 116.016 104.974C115.871 105.071 115.823 105.167 115.678 105.071C115.341 104.83 114.859 105.023 114.666 105.312C114.473 105.698 114.618 106.083 114.907 106.324C116.305 107.337 118.185 105.312 117.076 103.962C116.064 102.756 113.894 103.528 113.991 105.119C114.039 105.939 114.666 106.662 115.437 106.855C116.209 107.048 117.028 106.662 117.462 105.987C118.426 104.492 117.076 102.419 115.293 102.998C114.473 103.287 113.75 104.107 113.846 105.023C113.942 106.035 115.389 106.565 115.919 105.553C116.401 104.782 115.196 104.058 114.762 104.878Z" fill="#E8E8E8"/>
<path d="M143.884 62.8344C149.815 59.5558 154.974 55.2165 159.265 49.961C159.843 49.2378 158.831 48.2253 158.252 48.9485C154.057 54.1075 148.995 58.3504 143.161 61.5808C142.341 62.0148 143.064 63.2684 143.884 62.8344Z" fill="#E8E8E8"/>
<path d="M216.014 64.088C214.953 70.1631 214.519 76.2864 214.808 82.458C214.856 83.374 216.303 83.374 216.255 82.458C215.965 76.4311 216.351 70.4042 217.412 64.4738C217.557 63.5577 216.158 63.1719 216.014 64.088Z" fill="#E8E8E8"/>
<path d="M208.637 205.021C208.637 197.644 212.108 190.652 218.039 186.217C218.762 185.686 218.039 184.433 217.315 184.963C210.951 189.688 207.238 197.065 207.238 205.021C207.19 205.937 208.637 205.937 208.637 205.021Z" fill="#E8E8E8"/>
<path d="M289.397 399.713C290.168 406.656 291.374 414.274 293.302 422.518C295.906 433.656 299.233 443.396 302.56 451.592C301.644 452.412 298.895 454.581 294.845 454.871C292.29 455.064 290.265 454.437 289.108 454.003C287.372 447.976 285.684 441.708 284.142 435.199C280.959 421.795 278.645 409.018 276.958 397.109C281.152 397.977 285.299 398.845 289.397 399.713Z" fill="#6C6D6D"/>
<path d="M397.64 395.181C397.013 402.075 395.952 409.741 394.168 417.986C391.661 429.654 388.334 439.779 384.959 448.314C385.441 448.747 388.189 451.351 392.432 451.158C396.097 451.014 398.459 448.844 399.038 448.314C400.147 442.479 401.207 436.597 402.268 430.715C404.583 417.842 406.656 405.161 408.633 392.625C404.968 393.445 401.304 394.313 397.64 395.181Z" fill="#6C6D6D"/>
<path d="M311.431 375.943C312.54 383.32 313.842 390.938 315.336 398.748C317.506 410.079 319.965 420.879 322.569 431.101C321.46 431.776 319.242 432.885 316.204 433.078C313.649 433.222 311.624 432.644 310.467 432.21C309.02 425.363 307.622 418.42 306.224 411.477C303.668 398.604 301.306 385.923 299.04 373.387C303.186 374.207 307.285 375.075 311.431 375.943Z" fill="#6C6D6D"/>
<path d="M379.463 374.496C378.161 381.777 377.004 389.395 375.991 397.302C374.593 408.199 373.629 418.613 373.05 428.545C373.87 429.076 375.798 430.185 378.547 430.329C381.488 430.426 383.657 429.269 384.477 428.786C383.995 423.097 383.802 416.781 384.091 410.031C384.67 395.036 387.418 382.114 390.456 371.941C386.791 372.761 383.127 373.628 379.463 374.496Z" fill="#6C6D6D"/>
<path d="M465.141 213.169C473.578 228.212 467.069 244.846 451.255 286.166C443.637 306.031 429.702 342.53 410.031 394.554C390.697 401.593 358.682 410.272 319.097 407.524C296.099 405.932 276.813 400.966 262.204 395.856C260.034 391.95 252.512 377.341 258.153 363.166C261.287 355.307 267.604 349.666 281.007 343.012C294.218 336.455 317.506 327.246 351.353 325.558C338.094 259.552 360.803 205.454 396.145 192.967C419.336 184.818 453.521 192.485 465.141 213.169Z" fill="white" stroke="#6C6D6D" stroke-width="2" stroke-miterlimit="10"/>
<path d="M462.055 218.617C448.072 236.312 444.89 260.082 439.538 281.345C433.801 304.102 427.195 326.812 417.311 348.171C411.863 359.887 405.45 371.169 397.784 381.584C397.254 382.355 398.507 383.079 399.038 382.307C412.49 363.985 421.988 343.205 429.317 321.797C436.742 300.004 441.66 277.536 447.446 255.309C450.724 242.676 454.919 230.044 463.115 219.678C463.646 218.906 462.633 217.894 462.055 218.617Z" fill="#6C6D6D"/>
<path d="M262.493 385.393C294.652 397.206 329.705 400.677 363.552 395.422C373.243 393.927 382.838 391.709 392.239 388.816C393.107 388.527 392.77 387.129 391.854 387.418C359.068 397.543 323.871 399.086 290.313 391.95C281.007 389.973 271.798 387.273 262.879 383.995C262.011 383.657 261.625 385.055 262.493 385.393Z" fill="#6C6D6D"/>
<path d="M375.702 347.496C383.802 350.148 390.697 355.5 395.325 362.732C395.807 363.503 397.061 362.78 396.579 362.009C391.757 354.487 384.573 348.894 376.088 346.098C375.171 345.808 374.786 347.207 375.702 347.496Z" fill="#6C6D6D"/>
<path d="M230.671 409.934C234.528 415.72 238.385 421.554 242.194 427.34C217.508 449.519 214.326 455.835 216.158 457.378C219.822 460.415 246.099 446.915 248.799 445.517C258.587 440.503 265.964 435.633 270.882 432.161C269.146 427.436 266.832 422.133 263.65 416.54C259.455 409.163 254.826 402.943 250.439 397.881C243.833 401.834 237.228 405.884 230.671 409.934Z" fill="#7E7E7E"/>
<path d="M374.93 296.292C376.666 300.052 378.498 305.404 378.787 311.865C379.221 321.604 376.039 329.367 373.628 333.851C372.326 335.539 370.012 338.335 366.589 341.373C366.589 341.373 358.826 348.219 346.483 353.475C333.899 358.875 297.304 365.384 247.594 366.637C249.041 372.809 251.644 380.379 256.273 388.527C258.828 393.011 261.625 396.965 264.373 400.388C262.541 402.799 257.334 408.922 246.967 412.779C236.987 416.492 227.826 416.058 224.21 415.768C219.003 410.995 213.651 405.306 208.685 398.507C194.075 378.402 190.652 358.971 190.025 346.483C193.642 343.88 198.945 340.312 205.888 336.503C220.353 328.547 233.612 324.208 244.508 320.978C263.264 315.481 281.2 311.672 322.472 304.681C335.394 302.511 353.281 299.522 374.93 296.292Z" fill="white" stroke="#191919" stroke-width="2" stroke-miterlimit="10"/>
<path opacity="0.19" d="M329.126 304.585C327.727 313.794 323.774 325.751 311.527 333.176C299.618 340.408 289.638 337.467 265.771 343.253C248.607 347.399 225.897 352.896 219.581 365.094C212.976 377.92 225.463 396 247.305 410.85C249.137 410.609 251.451 410.127 253.91 409.163C260.226 406.656 263.312 402.557 264.469 400.774C261.673 397.398 258.78 393.493 256.128 389.009C251.114 380.62 248.414 372.809 246.871 366.493C272.425 365.432 293.881 363.214 310.177 361.093C329.801 358.537 343.397 355.982 356.367 348.653C367.216 342.53 371.555 336.503 373.098 334.189C377.775 327.101 378.16 320.64 378.353 317.024C378.835 308.201 375.943 301.017 373.532 296.484C358.73 299.184 343.928 301.885 329.126 304.585Z" fill="#6C6D6D"/>
<path opacity="0.19" d="M374.014 297.497C373.05 306.465 369.626 320.64 355.981 331.826C347.592 338.721 338.576 341.807 303.186 351.353C287.564 355.548 268.664 360.514 247.16 365.914C274.498 365.625 296.725 363.359 312.684 361.189C329.222 358.923 337.322 356.946 345.712 353.33C353.667 349.907 369.723 342.964 376.28 328.355C382.596 314.179 376.232 301.451 374.014 297.497Z" fill="#6C6D6D"/>
<path opacity="0.22" d="M247.305 366.637C247.112 373.002 247.401 380.282 248.607 388.286C249.764 396.193 251.644 403.281 253.669 409.452C255.308 408.488 257.189 407.186 259.021 405.595C261.239 403.666 262.878 401.834 264.084 400.243C261.287 396.579 258.442 392.336 255.791 387.563C251.5 379.848 248.944 372.712 247.305 366.637Z" fill="#6C6D6D"/>
<path d="M245.087 437.61C248.8 444.89 252.464 452.171 256.177 459.499C232.455 487.368 229.369 495.275 231.153 497.204C234.673 501.061 259.937 484.041 262.541 482.305C271.943 475.989 279.079 469.866 283.804 465.526C282.116 459.596 279.898 452.942 276.813 445.855C272.811 436.597 268.327 428.786 264.132 422.374C257.768 427.485 251.403 432.547 245.087 437.61Z" fill="#7E7E7E"/>
<path d="M383.753 294.797C385.441 299.57 387.177 306.224 387.466 314.372C387.9 326.619 384.814 336.358 382.5 341.999C381.246 344.121 379.028 347.641 375.75 351.498C375.75 351.498 368.325 360.128 356.464 366.734C344.362 373.484 309.165 381.729 261.432 383.271C262.83 391.034 265.289 400.532 269.773 410.754C272.232 416.395 274.932 421.361 277.584 425.652C275.848 428.69 270.834 436.356 260.853 441.226C251.259 445.903 242.484 445.372 238.964 444.938C233.949 438.96 228.79 431.776 224.065 423.242C209.987 397.977 206.708 373.532 206.129 357.862C209.601 354.632 214.712 350.1 221.365 345.326C235.299 335.346 247.98 329.849 258.491 325.799C276.475 318.904 293.784 314.131 333.465 305.308C345.712 302.56 362.973 298.847 383.753 294.797Z" fill="white" stroke="#191919" stroke-width="2" stroke-miterlimit="10"/>
<path opacity="0.19" d="M339.733 305.211C338.383 316.783 334.574 331.778 322.81 341.132C311.383 350.244 301.74 346.532 278.838 353.812C262.348 359.019 240.507 365.962 234.432 381.295C228.067 397.398 240.073 420.156 261.046 438.767C262.83 438.478 265.048 437.851 267.411 436.645C273.486 433.511 276.427 428.352 277.536 426.086C274.836 421.843 272.039 416.926 269.484 411.284C264.662 400.725 262.059 390.938 260.612 382.982C285.202 381.632 305.79 378.884 321.508 376.232C340.408 373.05 353.426 369.819 365.914 360.61C376.328 352.896 380.523 345.326 381.969 342.433C386.453 333.514 386.839 325.413 387.032 320.881C387.466 309.792 384.718 300.776 382.403 295.086C368.18 298.413 353.957 301.788 339.733 305.211Z" fill="#6C6D6D"/>
<path opacity="0.19" d="M382.837 296.292C381.921 307.526 378.643 325.365 365.528 339.444C357.428 348.123 348.798 351.98 314.806 363.985C299.763 369.289 281.634 375.509 260.95 382.307C287.227 381.921 308.635 379.125 323.967 376.377C339.878 373.532 347.689 371.073 355.692 366.541C363.359 362.201 378.739 353.523 385.104 335.105C391.13 317.265 385.007 301.306 382.837 296.292Z" fill="#6C6D6D"/>
<path opacity="0.22" d="M261.095 383.223C260.902 391.227 261.191 400.388 262.348 410.417C263.505 420.397 265.241 429.269 267.218 436.983C268.809 435.729 270.593 434.138 272.377 432.113C274.498 429.703 276.09 427.388 277.247 425.411C274.547 420.783 271.798 415.479 269.291 409.452C265.145 399.809 262.638 390.793 261.095 383.223Z" fill="#6C6D6D"/>
<path d="M242.339 219.871C241.423 219.437 239.591 218.617 239.639 217.701C239.735 216.206 244.701 215.194 248.414 215.242C250.921 215.242 255.55 215.772 260.95 219.533C255.887 221.124 248.414 222.571 242.339 219.871Z" fill="white" stroke="#191919" stroke-width="2" stroke-miterlimit="10"/>
<path d="M358.296 157.336C349.135 156.13 340.89 169.872 340.119 171.125C337.323 175.899 336.985 179.081 335.056 187.808C330.38 209.071 327.872 219.871 320.929 226.38C314.661 232.214 307.333 233.612 305.404 233.901C297.159 235.203 289.686 232.117 275.125 225.898C262.83 220.642 261.336 218.714 254.634 217.942C251.211 217.556 241.23 216.447 234.625 222.86C230.382 226.958 228.501 233.516 230.044 234.866C232.021 236.601 240.121 230.478 240.218 230.623C240.266 230.719 237.807 231.876 235.782 234.383C234.769 235.589 233.033 238.192 233.66 238.867C234.769 240.218 241.568 232.021 249.041 233.467C254.152 234.432 255.116 239.06 261.046 239.928C264.518 240.459 267.555 239.398 269.484 238.482C272.859 242.146 278.356 247.353 286.311 251.596C291.036 254.103 307.719 262.734 328.113 257.72C349.762 252.416 360.659 235.492 364.082 230.189C366.01 227.151 380.186 204.49 373.339 179.081C372.134 174.983 367.746 158.589 358.296 157.336Z" fill="white" stroke="#191919" stroke-width="2" stroke-miterlimit="10"/>
<path opacity="0.25" d="M357.332 157.481C354.198 159.12 360.273 170.499 359.501 186.795C358.778 202.465 352.076 214.037 349.087 219.34C345.037 226.428 339.685 235.685 329.029 241.712C314.71 249.812 296.966 248.607 284.334 243.11C280.573 241.471 276.764 236.167 268.471 232.937C264.855 231.539 262.011 230.96 258.684 230.285C250.535 228.694 243.303 227.248 236.601 230.623C233.419 232.262 230.767 234.769 230.96 235.107C231.153 235.444 234.865 233.564 238.144 231.78C234.19 237.035 233.564 238.53 233.853 238.819C234.19 239.109 235.396 238 238.482 236.264C241.808 234.432 244.219 233.13 247.16 233.371C248.655 233.516 249.812 233.998 250.487 234.287C253.139 235.444 253.766 236.794 256.418 238.144C258.057 238.964 259.407 239.301 260.13 239.446C261.673 239.784 264.855 240.217 269.05 238.723C272.714 242.58 289.541 259.648 314.179 259.311C326.86 259.118 336.165 254.393 339.83 252.512C359.935 242.05 367.939 223.487 369.964 218.376C376.232 202.562 378.45 179.129 366.975 164.424C364.226 160.856 359.501 156.372 357.332 157.481Z" fill="#6C6D6D"/>
<path d="M230.912 234.866C232.792 232.069 235.251 229.851 238.193 228.26C238.819 227.923 238.241 227.007 237.662 227.344C234.576 229.032 231.973 231.394 229.996 234.335C229.562 234.914 230.526 235.444 230.912 234.866Z" fill="#191919"/>
<path d="M231.49 228.646C233.371 225.705 236.408 224.162 239.446 222.667C240.073 222.378 239.542 221.414 238.916 221.751C235.685 223.294 232.503 224.982 230.526 228.116C230.189 228.694 231.105 229.224 231.49 228.646Z" fill="#191919"/>
<path opacity="0.29" d="M371.169 174.838C370.446 179.708 369.144 186.747 366.83 195.04C362.298 211.433 358.2 226.187 347.496 237.903C334.237 252.368 316.253 256.321 305.935 257.527C313.601 259.311 319.628 258.973 323.437 258.443C352.366 254.393 367.987 223.294 372.23 209.697C372.953 207.287 374.496 202.321 374.689 195.522C375.027 186.458 372.809 179.177 371.169 174.838Z" fill="#6C6D6D"/>
<path opacity="0.26" d="M250.005 232.889C252.753 234.239 256.514 235.734 261.143 236.601C264.807 237.276 268.086 237.421 270.689 237.325C264.084 240.844 260.661 240.41 258.732 239.253C257.527 238.53 256.177 237.084 252.464 234.528C251.452 233.805 250.584 233.226 250.005 232.889Z" fill="#6C6D6D"/>
<path d="M152.514 312.154C152.514 335.298 152.514 358.489 152.514 381.632C152.514 384.429 156.854 384.429 156.854 381.632C156.854 358.489 156.854 335.298 156.854 312.154C156.854 309.406 152.514 309.358 152.514 312.154Z" fill="#7E7E7E"/>
<path d="M231.394 311.238C231.394 314.951 231.394 318.663 231.394 322.376C231.394 325.172 235.733 325.172 235.733 322.376C235.733 318.663 235.733 314.951 235.733 311.238C235.733 308.442 231.394 308.442 231.394 311.238Z" fill="#7E7E7E"/>
<path d="M92.6313 309.31C116.016 287.275 139.4 265.193 162.832 243.159C200.681 243.834 238.482 244.509 276.331 245.184C270.159 266.591 263.988 287.95 257.816 309.358C202.754 309.31 147.693 309.31 92.6313 309.31Z" fill="white" stroke="#191919" stroke-width="2" stroke-miterlimit="10"/>
<path d="M94.0295 311.817C136.314 311.817 178.55 311.817 220.835 311.817C232.696 311.817 244.509 311.817 256.369 311.817C259.166 311.817 259.166 307.477 256.369 307.477C214.085 307.477 171.849 307.477 129.564 307.477C117.703 307.477 105.89 307.477 94.0295 307.477C91.233 307.477 91.233 311.817 94.0295 311.817Z" fill="#7E7E7E"/>
<path d="M106.421 311.094C106.421 359.068 106.421 407.041 106.421 454.967C106.421 468.419 106.421 481.823 106.421 495.275C106.421 498.071 110.76 498.071 110.76 495.275C110.76 447.301 110.76 399.327 110.76 351.401C110.76 337.949 110.76 324.546 110.76 311.094C110.76 308.297 106.421 308.297 106.421 311.094Z" fill="#7E7E7E"/>
<path d="M238.675 311.094C238.675 359.068 238.675 407.041 238.675 454.967C238.675 468.419 238.675 481.823 238.675 495.275C238.675 498.071 243.014 498.071 243.014 495.275C243.014 447.301 243.014 399.327 243.014 351.401C243.014 337.949 243.014 324.546 243.014 311.094C243.014 308.297 238.675 308.297 238.675 311.094Z" fill="#7E7E7E"/>
<path d="M108.591 400.629C142.63 400.629 176.67 400.629 210.71 400.629C220.353 400.629 229.996 400.629 239.639 400.629C242.435 400.629 242.435 396.29 239.639 396.29C205.599 396.29 171.559 396.29 137.52 396.29C127.877 396.29 118.234 396.29 108.591 396.29C105.794 396.29 105.794 400.629 108.591 400.629Z" fill="#7E7E7E"/>
<path d="M275.752 245.184C270.256 266.639 263.939 287.902 256.707 308.827C256.08 310.611 258.877 311.335 259.504 309.599C266.736 288.625 273.052 267.411 278.549 245.955C278.983 244.171 276.234 243.4 275.752 245.184Z" fill="#7E7E7E"/>
<path d="M44.8986 500C70.5008 500 96.0548 500 121.657 500C124.453 500 124.453 495.661 121.657 495.661C96.0548 495.661 70.5008 495.661 44.8986 495.661C42.1022 495.661 42.1022 500 44.8986 500Z" fill="#7E7E7E"/>
<path d="M132.409 499.036C138.291 499.036 144.222 499.036 150.104 499.036C152.9 499.036 152.9 494.696 150.104 494.696C144.222 494.696 138.291 494.696 132.409 494.696C129.612 494.696 129.612 499.036 132.409 499.036Z" fill="#7E7E7E"/>
<path d="M209.167 499.663C232.214 499.663 255.261 499.663 278.356 499.663C281.152 499.663 281.152 495.323 278.356 495.323C255.309 495.323 232.262 495.323 209.167 495.323C206.371 495.323 206.371 499.663 209.167 499.663Z" fill="#7E7E7E"/>
<path d="M294.122 498.12C298.22 498.12 302.319 498.12 306.465 498.12C309.262 498.12 309.262 493.78 306.465 493.78C302.367 493.78 298.269 493.78 294.122 493.78C291.326 493.78 291.326 498.12 294.122 498.12Z" fill="#7E7E7E"/>
<path d="M21.6589 484.716C31.6394 484.716 41.6199 484.716 51.5522 484.716C54.3487 484.716 54.3487 480.377 51.5522 480.377C41.5717 480.377 31.5912 480.377 21.6589 480.377C18.8624 480.377 18.8624 484.716 21.6589 484.716Z" fill="#7E7E7E"/>
<path d="M232.551 300.197C202.802 299.426 173.005 298.702 143.257 297.931C160.904 281.056 178.502 264.132 196.149 247.257C216.495 248.318 236.89 249.378 257.237 250.439C248.992 267.073 240.796 283.611 232.551 300.197Z" fill="white" stroke="#191919" stroke-width="2" stroke-miterlimit="10"/>
<path d="M195.136 246.919C177.827 263.65 160.518 280.429 143.209 297.159C142.437 270.352 141.618 243.496 140.846 216.689C158.396 205.599 175.947 194.51 193.497 183.42C193.979 204.587 194.558 225.753 195.136 246.919Z" fill="white" stroke="#191919" stroke-width="2" stroke-miterlimit="10"/>
<path d="M142.437 219.244C143.836 243.11 144.752 267.025 145.234 290.94C145.234 291.422 145.957 291.422 145.957 290.94C145.475 267.025 144.559 243.11 143.161 219.244C143.112 218.81 142.389 218.81 142.437 219.244Z" fill="#191919"/>
<path d="M142.823 219.34C158.975 208.83 175.127 198.319 191.279 187.808C191.665 187.567 191.327 186.94 190.894 187.181C174.742 197.692 158.589 208.203 142.437 218.714C142.052 219.003 142.389 219.63 142.823 219.34Z" fill="#191919"/>
<path d="M191.086 187.76C191.038 206.997 191.617 226.283 192.87 245.473C192.918 245.955 193.642 245.955 193.593 245.473C192.388 226.235 191.761 206.997 191.81 187.76C191.81 187.326 191.086 187.326 191.086 187.76Z" fill="#191919"/>
<path d="M145.716 291.952C161.53 276.668 177.393 261.384 193.208 246.148C193.545 245.81 193.015 245.328 192.677 245.618C176.863 260.902 161 276.186 145.185 291.422C144.896 291.759 145.378 292.29 145.716 291.952Z" fill="#191919"/>
<path d="M218.954 283.756C221.896 279.079 224.837 274.354 227.681 269.58C227.922 269.195 227.296 268.809 227.055 269.195C224.21 273.968 221.269 278.693 218.328 283.37C218.038 283.756 218.665 284.141 218.954 283.756Z" fill="#191919"/>
<path d="M227.489 269.436C231.298 269.58 235.107 269.58 238.916 269.388C239.398 269.388 239.398 268.664 238.916 268.664C235.107 268.809 231.298 268.809 227.489 268.713C227.006 268.713 227.006 269.436 227.489 269.436Z" fill="#191919"/>
<path d="M238.433 269.195C236.264 273.92 234.046 278.645 231.828 283.37C231.635 283.804 232.262 284.141 232.455 283.756C234.673 279.031 236.89 274.305 239.06 269.58C239.253 269.098 238.626 268.761 238.433 269.195Z" fill="#191919"/>
<path d="M218.713 284.141C222.956 284.768 227.44 284.479 231.731 284.286C232.214 284.286 232.214 283.563 231.731 283.563C227.537 283.756 223.101 284.045 218.906 283.466C218.424 283.37 218.231 284.093 218.713 284.141Z" fill="#191919"/>
<path d="M234.528 269.243C232.599 274.064 230.381 278.741 227.874 283.273C227.633 283.659 228.26 284.045 228.501 283.659C231.008 279.031 233.274 274.305 235.251 269.436C235.396 269.002 234.721 268.809 234.528 269.243Z" fill="#191919"/>
<path d="M164.664 291.084C175.272 277.97 186.265 265.145 197.595 252.609C197.885 252.271 197.402 251.741 197.065 252.078C185.734 264.566 174.741 277.391 164.134 290.554C163.845 290.94 164.375 291.422 164.664 291.084Z" fill="#191919"/>
<path d="M177.49 291.904C186.988 278.645 197.017 265.82 207.528 253.38C207.817 253.043 207.335 252.512 206.997 252.85C196.438 265.338 186.41 278.211 176.863 291.518C176.574 291.904 177.201 292.29 177.49 291.904Z" fill="#191919"/>
<path d="M191.279 293.881C199.524 280.091 208.54 266.784 218.28 254.007C218.569 253.621 217.942 253.284 217.653 253.621C207.913 266.398 198.897 279.706 190.652 293.495C190.411 293.881 191.038 294.267 191.279 293.881Z" fill="#191919"/>
<path d="M202.851 295.086C210.951 279.995 220.546 265.771 231.539 252.657C231.828 252.319 231.346 251.789 231.008 252.127C219.967 265.289 210.324 279.561 202.176 294.7C201.983 295.134 202.61 295.52 202.851 295.086Z" fill="#191919"/>
<path d="M170.836 283.273C183.179 281.972 195.522 283.515 207.817 285.154C208.299 285.202 208.251 284.479 207.817 284.431C195.571 282.791 183.227 281.2 170.836 282.55C170.402 282.598 170.402 283.322 170.836 283.273Z" fill="#191919"/>
<path d="M177.055 276.234C188.723 275.8 200.391 276.668 211.867 278.886C212.301 278.982 212.493 278.259 212.06 278.211C200.536 275.993 188.772 275.125 177.055 275.559C176.621 275.511 176.621 276.234 177.055 276.234Z" fill="#191919"/>
<path d="M182.649 269.436C193.883 268.713 205.117 269.725 216.062 272.425C216.496 272.522 216.689 271.847 216.255 271.75C205.262 269.002 193.979 267.989 182.649 268.713C182.167 268.761 182.167 269.484 182.649 269.436Z" fill="#191919"/>
<path d="M188.434 262.637C199.235 262.686 209.938 263.795 220.497 265.964C220.931 266.061 221.124 265.338 220.69 265.289C210.083 263.12 199.283 262.011 188.434 261.962C188 261.914 188 262.637 188.434 262.637Z" fill="#191919"/>
<path d="M194.172 256.321C204.442 256.514 214.664 257.72 224.644 259.986C225.078 260.082 225.271 259.407 224.837 259.311C214.76 257.045 204.49 255.791 194.172 255.646C193.69 255.598 193.69 256.321 194.172 256.321Z" fill="#191919"/>
<path d="M227.247 263.65C222.522 270.593 217.845 277.536 213.12 284.479C212.879 284.865 213.506 285.25 213.747 284.865C218.472 277.922 223.149 270.979 227.874 264.036C228.163 263.602 227.537 263.264 227.247 263.65Z" fill="#191919"/>
<path d="M147.403 253.139C153.43 250.584 159.939 252.03 166.304 251.934C171.655 251.886 176.766 250.391 181.347 247.691C181.732 247.45 181.395 246.823 180.961 247.064C175.32 250.391 169.341 251.452 162.88 251.162C157.48 250.921 152.128 250.391 147.018 252.561C146.632 252.705 146.969 253.332 147.403 253.139Z" fill="#191919"/>
<path d="M163.652 250.15C173.97 244.316 178.743 232.021 189.495 226.862C189.929 226.669 189.543 226.042 189.109 226.235C178.309 231.442 173.584 243.689 163.266 249.523C162.88 249.764 163.218 250.391 163.652 250.15Z" fill="#191919"/>
<path d="M176.766 215.772C174.982 214.374 175.272 212.108 176.284 210.324C176.766 209.456 177.489 208.54 178.309 208.01C179.804 207.046 181.202 207.817 182.359 208.83C182.697 209.119 183.227 208.637 182.89 208.299C180.479 206.274 178.213 206.467 176.236 209.071C174.645 211.192 173.825 214.374 176.236 216.303C176.622 216.592 177.152 216.062 176.766 215.772Z" fill="#191919"/>
<path d="M325.269 180.527C312.058 195.185 308.49 211.288 306.561 220.401C303.041 237.276 306.754 244.026 306.995 276.089C307.092 289.734 306.513 300.776 306.079 307.719C309.068 310.033 327.583 323.822 352.317 319.29C370.639 315.963 381.68 304.488 385.152 300.583C385.971 296.002 387.128 289.252 388.478 281.056C395.614 236.842 399.134 214.422 394.698 198.367C392.046 188.627 385.489 173.199 366.878 157.239C359.067 158.879 340.312 163.893 325.269 180.527Z" fill="#9B9B9B"/>
<path opacity="0.19" d="M338.721 171.656C343.301 185.349 345.76 197.065 347.206 205.647C351.015 228.357 356.753 262.396 340.601 295.375C335.442 305.886 329.415 313.601 325.172 318.374C330.765 319.676 341.855 321.46 355.065 318.037C370.784 313.986 380.619 304.874 384.669 300.727C387.803 282.791 390.311 267.411 392.239 255.405C395.566 234.287 396.337 227.874 396 218.858C395.614 207.287 395.084 195.136 388.141 182.022C381.487 169.486 372.134 161.965 366.396 158.107C361.719 158.927 355.114 160.663 348.122 164.713C344.265 167.027 341.131 169.486 338.721 171.656Z" fill="#6C6D6D"/>
<path opacity="0.18" d="M393.493 194.654C392.625 194.703 394.457 208.058 391.612 226.476C386.357 260.564 369.482 284.19 362.973 292.579C357.524 299.57 348.99 309.213 336.503 318.712C340.987 319.387 346.965 319.676 353.812 318.374C370.06 315.336 380.378 305.356 384.332 301.065C385.345 295.183 386.984 285.974 389.057 274.595C393.927 247.98 394.891 244.798 395.663 236.505C397.784 213.892 394.505 194.654 393.493 194.654Z" fill="#6C6D6D"/>
<path d="M240.314 230.478C239.398 229.851 237.565 228.694 237.758 227.73C238.144 226.187 243.689 225.946 247.691 226.621C250.391 227.055 255.309 228.453 260.468 233.323C254.682 234.142 246.341 234.383 240.314 230.478Z" fill="white" stroke="#191919" stroke-width="2" stroke-miterlimit="10"/>
<path d="M376.425 184.288C366.734 181.443 355.403 194.51 354.39 195.763C350.533 200.344 349.617 203.622 346.001 212.494C337.226 234.191 332.645 245.135 323.967 250.825C316.204 255.936 308.056 256.128 305.886 256.128C296.774 256.08 289.252 251.548 274.595 242.484C262.252 234.817 260.998 232.503 253.862 230.574C250.246 229.61 239.639 226.717 231.394 232.358C226.139 235.926 222.908 242.58 224.355 244.268C226.187 246.437 236.023 241.326 236.071 241.519C236.119 241.616 233.226 242.435 230.623 244.75C229.321 245.859 227.006 248.269 227.537 249.137C228.501 250.777 237.276 243.255 245.087 246.051C250.391 247.932 250.68 252.994 256.9 254.971C260.564 256.128 264.036 255.502 266.253 254.875C269.243 259.359 274.305 265.771 282.116 271.605C286.793 275.077 303.283 287.034 326.185 285.25C350.485 283.37 365.239 267.314 369.819 262.348C372.471 259.503 391.709 237.951 388.768 209.89C388.334 205.31 386.453 187.277 376.425 184.288Z" fill="white" stroke="#191919" stroke-width="2" stroke-miterlimit="10"/>
<path opacity="0.25" d="M375.364 184.288C371.7 185.493 376.28 198.56 372.568 215.676C369.048 232.117 359.791 243.207 355.596 248.269C349.955 255.068 342.578 263.939 329.994 268.471C313.118 274.547 294.17 270.255 281.489 262.3C277.729 259.889 274.546 253.669 266.109 248.8C262.444 246.678 259.503 245.618 255.984 244.316C247.498 241.23 239.88 238.434 232.117 240.892C228.405 242.05 225.078 244.268 225.271 244.653C225.464 245.087 229.755 243.689 233.612 242.387C228.453 247.257 227.489 248.752 227.73 249.137C228.019 249.523 229.562 248.51 233.178 247.257C237.132 245.859 239.88 244.943 243.062 245.714C244.653 246.1 245.81 246.823 246.533 247.257C249.185 248.896 249.619 250.487 252.223 252.368C253.814 253.525 255.26 254.103 256.032 254.393C257.623 255.019 260.998 256.032 265.771 255.164C269.05 259.889 284.238 280.815 310.901 284.672C324.642 286.649 335.49 283.273 339.781 281.875C363.31 274.257 375.219 256.032 378.305 250.969C387.852 235.348 394.361 210.951 384.525 193.401C382.211 189.013 377.871 183.468 375.364 184.288Z" fill="#6C6D6D"/>
<path d="M225.222 244.412C227.778 241.76 230.767 239.832 234.239 238.675C234.914 238.434 234.624 237.421 233.949 237.614C230.333 238.867 227.103 240.892 224.451 243.641C223.969 244.171 224.74 244.943 225.222 244.412Z" fill="#191919"/>
<path d="M226.958 237.951C229.513 235.107 233.081 233.998 236.649 232.985C237.324 232.792 237.035 231.732 236.36 231.924C232.647 233.033 228.887 234.239 226.235 237.18C225.704 237.71 226.476 238.434 226.958 237.951Z" fill="#191919"/>
<path opacity="0.29" d="M387.273 205.021C385.634 210.035 382.982 217.267 379.077 225.657C371.314 242.194 364.323 257.093 350.678 267.652C333.851 280.67 313.697 281.779 302.366 281.248C310.322 284.479 316.927 285.154 321.122 285.25C353.04 285.925 375.412 255.694 382.355 242.098C383.561 239.687 386.068 234.673 387.514 227.537C389.395 217.942 388.286 209.89 387.273 205.021Z" fill="#6C6D6D"/>
<path opacity="0.26" d="M246.244 245.569C248.944 247.45 252.753 249.668 257.623 251.403C261.48 252.753 265 253.428 267.796 253.766C260.034 256.321 256.417 255.309 254.537 253.766C253.38 252.802 252.175 251.018 248.558 247.691C247.642 246.775 246.823 246.051 246.244 245.569Z" fill="#6C6D6D"/>
<path d="M301.692 87.0384C301.161 90.1241 300.631 93.2099 300.197 96.4403C298.317 109.555 297.545 121.946 297.497 133.469C300.149 133.18 302.752 132.891 305.404 132.65C305.115 135.205 304.295 144.559 310.274 153.816C315.915 162.543 324.015 165.725 326.523 166.593C326.233 171.318 325.992 175.995 325.703 180.72C330.91 176.092 337.998 170.643 347.014 165.773C353.909 162.061 360.418 159.506 365.962 157.77C359.743 150.055 357.38 142.775 356.368 138.58C354.632 131.348 354.969 125.128 355.307 119.632C355.644 113.991 356.464 109.314 357.187 106.035C359.453 95.7171 353.523 79.3722 341.71 73.49C330.042 67.6559 312.637 72.5739 301.692 87.0384Z" fill="white" stroke="#161616" stroke-width="2" stroke-miterlimit="10"/>
<path d="M304.295 132.987C305.645 132.794 307.044 132.65 308.394 132.505C308.876 132.457 308.876 131.734 308.394 131.782C306.947 131.927 305.549 132.119 304.103 132.312C303.669 132.312 303.861 133.035 304.295 132.987Z" fill="#161616"/>
<path d="M347.785 94.5117C341.951 96.0064 340.89 101.069 333.514 111.628C326.04 122.332 321.315 129.034 312.877 132.939C307.429 135.446 304.729 134.771 302.318 138.002C298.172 143.595 300.968 152.804 303.427 157.529C306.272 162.977 310.611 166.256 314.179 168.956C317.603 171.511 320.737 173.199 322.954 174.211C320.592 170.595 320.447 169.486 320.737 169.149C321.508 168.377 324.787 172.524 328.644 171.993C329.753 171.849 331.73 171.222 336.117 164.327C339.106 159.65 341.131 156.42 342.482 151.791C345.423 141.859 341.276 139.159 342.482 126.093C342.674 124.116 344.024 108.639 349.521 107.626C351.498 107.24 353.523 108.88 354.487 110.133C356.512 112.785 356.271 117.028 353.764 120.692C354.583 120.114 362.443 114.81 362.346 106.18C362.346 104.83 362.298 99.8636 358.537 96.6332C354.246 92.9688 348.267 94.4153 347.785 94.5117Z" fill="#3E3D3D" stroke="#3E3D3D" stroke-width="2" stroke-miterlimit="10"/>
<path d="M308.924 116.45C310.042 116.45 310.949 114.831 310.949 112.833C310.949 110.836 310.042 109.217 308.924 109.217C307.806 109.217 306.899 110.836 306.899 112.833C306.899 114.831 307.806 116.45 308.924 116.45Z" fill="#161616"/>
<path d="M293.495 118.137C294.614 118.137 295.52 116.518 295.52 114.521C295.52 112.524 294.614 110.905 293.495 110.905C292.377 110.905 291.47 112.524 291.47 114.521C291.47 116.518 292.377 118.137 293.495 118.137Z" fill="#161616"/>
<path d="M290.458 108.59C291.759 107.096 293.785 106.951 295.231 108.398C295.906 109.073 296.918 108.012 296.243 107.385C294.267 105.457 291.229 105.505 289.397 107.578C288.867 108.301 289.879 109.314 290.458 108.59Z" fill="#161616"/>
<path d="M306.272 106.083C307.96 104.685 310.177 104.878 311.624 106.469C312.251 107.144 313.263 106.132 312.636 105.457C310.611 103.287 307.477 103.19 305.211 105.071C304.536 105.649 305.549 106.662 306.272 106.083Z" fill="#161616"/>
<path d="M300.052 92.776C300.583 89.3045 301.933 83.6151 305.645 77.7329C306.947 75.6596 309.743 71.2721 314.179 68.2827C322.665 62.6416 335.731 63.0755 345.23 70.0185C354.535 76.8168 359.164 88.967 357.139 101.021C338.094 98.3207 319.097 95.5724 300.052 92.776Z" fill="#494949"/>
<path d="M268.905 93.2099C298.172 96.9707 327.487 100.731 356.753 104.444C359.501 104.782 359.501 100.442 356.753 100.105C327.487 96.3439 298.172 92.5831 268.905 88.8705C266.157 88.4848 266.157 92.8242 268.905 93.2099Z" fill="#161616"/>
<path d="M324.835 64.7631C332.357 66.4024 338.046 72.4775 339.01 79.7579C339.878 86.1223 337.082 92.5831 331.778 96.5368C340.119 97.6457 348.509 98.8029 356.85 99.9118C357.284 97.6939 357.669 94.3189 357.139 90.3652C355.885 81.1079 350.534 75.1775 348.798 73.3935C346.917 71.4649 340.264 65.0041 330.38 64.4256C328.114 64.3291 326.185 64.522 324.835 64.7631Z" fill="#333333"/>
</g>
<defs>
<filter id="filter0_d_8_563" x="0" y="0" width="634.675" height="508" filterUnits="userSpaceOnUse" color-interpolation-filters="sRGB">
<feFlood flood-opacity="0" result="BackgroundImageFix"/>
<feColorMatrix in="SourceAlpha" type="matrix" values="0 0 0 0 0 0 0 0 0 0 0 0 0 0 0 0 0 0 127 0" result="hardAlpha"/>
<feOffset dy="4"/>
<feGaussianBlur stdDeviation="2"/>
<feComposite in2="hardAlpha" operator="out"/>
<feColorMatrix type="matrix" values="0 0 0 0 0 0 0 0 0 0 0 0 0 0 0 0 0 0 0.25 0"/>
<feBlend mode="normal" in2="BackgroundImageFix" result="effect1_dropShadow_8_563"/>
<feBlend mode="normal" in="SourceGraphic" in2="effect1_dropShadow_8_563" result="shape"/>
</filter>
</defs>
</svg>
